<?xml version="1.0" encoding="utf-8"?>
<!-- Generator: Adobe Illustrator 19.1.0, SVG Export Plug-In . SVG Version: 6.00 Build 0)  -->
<svg version="1.1" xmlns="http://www.w3.org/2000/svg" xmlns:xlink="http://www.w3.org/1999/xlink" x="0px" y="0px"
	 viewBox="12 -12 48 48" style="enable-background:new 12 -12 48 48;" xml:space="preserve">
<style type="text/css">
	.st0{fill:#FF0000;}
	.st1{fill:none;}
</style>
<g id="Layer_2">
	<circle class="st0" cx="36.2" cy="12" r="17.8"/>
</g>
<g id="Layer_1">
	<path class="st1" d="M12-12h48v48H12V-12z"/>
	<path d="M30,20h4V4h-4V20z M36-8C25-8,16,1,16,12s9,20,20,20s20-9,20-20S47-8,36-8z M36,28c-8.8,0-16-7.2-16-16S27.2-4,36-4
		s16,7.2,16,16S44.8,28,36,28z M38,20h4V4h-4V20z"/>
</g>
</svg>
